# xmcd
#
# Track frame offsets: 
#        150
#        13082
#        36235
#        54527
#        66792
#        79160
#        102750
#        123677
#        141217
#        153767
#        166000
#        179250
#        196320
#        210545
#        229710
#        241052
#        258297
#        270825
#        284640
#        298280
#        314447
#        333082
#
# Disc length: 4682 seconds
#
# Revision: 3
# Processed by: cddbd v1.5.2PL0 Copyright (c) Steve Scherf et al.
# Submitted via: ExactAudioCopy v0.99pb3
#
DISCID=37124816
DTITLE=Various (1950's - 1970's) Blues Artists - The Blue Horizon Stor
DTITLE=y: 1965-1970: Vol. 1: Disc 3: The CBS Years, Part 2
DYEAR=2006
DGENRE=Blues
TTITLE0=Magic Sam - Everything Gonna Be Alright (1957)
TTITLE1=Chicken Shack - Hideway (1969)
TTITLE2=David 'Honeyboy' Edwards - My Baby's Gone (1969)
TTITLE3=Coyne Clague - Mandy Lee (1969)
TTITLE4=Gordon Smith - Too Long (1969)
TTITLE5=Mississippi Joe Callicott - You Don't Know My Mind (1968)
TTITLE6=Furry Lewis - Judge Harsh Blues (1968)
TTITLE7=Bukka White - Drifting Blues (1968)
TTITLE8=Larry Johnson - Southern Train (1966)
TTITLE9=Chicken Shack - Tears In The Wind (1969)
TTITLE10=Duster Bennett - I'm Gonna Wind Up Ending Up Or I'm Gonna End
TTITLE10=Up Winding Up With You (1969)
TTITLE11=Harmonica Slim - She Wants To Rock'n'Roll (1969)
TTITLE12=Johnny Young - Moaning And Groaning (1969)
TTITLE13=George Smith - Someday You're Gonna Learn (To Treat Me Right)
TTITLE13=(1969)
TTITLE14=Top Topham - Ridin' The Blinds (1969)
TTITLE15=Bacon Fat - Boom Boom (Out Goes The Lights) (1969)
TTITLE16=Jellybread - Rockin' Pneumonia And The Boogie Woogie Flu (196
TTITLE16=9)
TTITLE17=Christine Perfect - Crazy 'Bout You Baby (1969)
TTITLE18=Key Largo - Voodoo Rhythm (1970)
TTITLE19=Duster Bennett - I Want You To Love Me (1970)
TTITLE20=Martha Velez - I'm Gonna Leave You (1969)
TTITLE21=Bacon Fat - Blues Feeling (1970)
EXTD=The original one in freedb is wrong. This is the correct version\n
EXTD=Compilation Sony/BMG 2006
EXTT0=
EXTT1=
EXTT2=
EXTT3=
EXTT4=
EXTT5=
EXTT6=
EXTT7=
EXTT8=
EXTT9=
EXTT10=
EXTT11=
EXTT12=
EXTT13=
EXTT14=
EXTT15=
EXTT16=
EXTT17=
EXTT18=
EXTT19=
EXTT20=
EXTT21=
PLAYORDER=
